<svg width="18" height="18" viewBox="0 0 18 18" fill="none" xmlns="http://www.w3.org/2000/svg">
<g id="Copy-right">
<path id="Vector" fill-rule="evenodd" clip-rule="evenodd" d="M0 8.95833C0 4.01083 4.01083 0 8.95833 0C13.9058 0 17.9167 4.01083 17.9167 8.95833C17.9167 13.9058 13.9058 17.9167 8.95833 17.9167C4.01083 17.9167 0 13.9058 0 8.95833ZM8.95833 1.25C6.91396 1.25 4.95331 2.06213 3.50772 3.50772C2.06213 4.95331 1.25 6.91396 1.25 8.95833C1.25 11.0027 2.06213 12.9634 3.50772 14.4089C4.95331 15.8545 6.91396 16.6667 8.95833 16.6667C11.0027 16.6667 12.9634 15.8545 14.4089 14.4089C15.8545 12.9634 16.6667 11.0027 16.6667 8.95833C16.6667 6.91396 15.8545 4.95331 14.4089 3.50772C12.9634 2.06213 11.0027 1.25 8.95833 1.25Z" fill="#414141"/>
<path id="Vector_2" fill-rule="evenodd" clip-rule="evenodd" d="M9.19667 6.25001C7.5275 6.25001 6.25 7.50251 6.25 8.95834C6.25 10.4142 7.5275 11.6667 9.19667 11.6667C9.6225 11.6667 10.0258 11.5833 10.3883 11.4358C10.4643 11.4048 10.5457 11.3891 10.6278 11.3895C10.7099 11.3899 10.7911 11.4065 10.8668 11.4383C10.9424 11.4701 11.0111 11.5165 11.0689 11.5748C11.1266 11.6332 11.1723 11.7023 11.2033 11.7783C11.2344 11.8543 11.2501 11.9357 11.2497 12.0178C11.2493 12.0999 11.2327 12.1811 11.2009 12.2568C11.1691 12.3325 11.1227 12.4011 11.0643 12.4589C11.006 12.5166 10.9368 12.5623 10.8608 12.5933C10.3323 12.8078 9.76708 12.9176 9.19667 12.9167C6.92 12.9167 5 11.1842 5 8.95834C5 6.73251 6.92 5.00001 9.19667 5.00001C9.76708 4.9991 10.3323 5.10891 10.8608 5.32334C11.0144 5.38589 11.1369 5.50689 11.2013 5.65973C11.2657 5.81257 11.2667 5.98473 11.2042 6.13834C11.1416 6.29194 11.0206 6.41441 10.8678 6.4788C10.7149 6.54319 10.5428 6.54422 10.3892 6.48167C10.0104 6.32789 9.60542 6.24921 9.19667 6.25001Z" fill="#414141"/>
</g>
</svg>
